# xmcd
#
# Track frame offsets: 
#        150
#        14715
#        28458
#        34936
#        51856
#        62635
#        73081
#        76373
#        95433
#        113354
#        121738
#        143277
#        159184
#        176276
#        202178
#
# Disc length: 2750 seconds
#
# Revision: 3
# Processed by: cddbd v1.5.2PL0 Copyright (c) Steve Scherf et al.
# Submitted via: ExactAudioCopyFreeDBPlugin 1.0
#
DISCID=c40abc0f
DTITLE=Godiego - Our Decade
DYEAR=1979
DGENRE=JPop
TTITLE0=Progress And Harmony
TTITLE1=Easy Rider
TTITLE2=Shock, Shock, Shock
TTITLE3=Try To Wake Up To A Morning
TTITLE4=Close-Ups
TTITLE5=Deep Red
TTITLE6=Purple Poison
TTITLE7=Lighting Man
TTITLE8=A Boring Day (Up On The Moon)
TTITLE9=Imitation
TTITLE10=The Sun Is Setting On The West
TTITLE11=The Dragon's Come Alive
TTITLE12=Where'll We Go From Now
TTITLE13=Promise At Dawn
TTITLE14=Progress And Harmony (refrain)
EXTD=Year: 2008
EXTT0=
EXTT1=
EXTT2=
EXTT3=
EXTT4=
EXTT5=
EXTT6=
EXTT7=
EXTT8=
EXTT9=
EXTT10=
EXTT11=
EXTT12=
EXTT13=
EXTT14=
PLAYORDER=
